<svg width="25" height="30" viewBox="0 0 25 30" fill="none" xmlns="http://www.w3.org/2000/svg">
<path d="M14.1523 23.3037H18.3536" stroke="#E60000" stroke-linecap="round" stroke-linejoin="round"/>
<path d="M8.22656 17.9046V2.96718C8.22656 2.70824 8.28289 2.45184 8.39231 2.2127C8.50173 1.97356 8.6621 1.75638 8.86421 1.57362C9.06632 1.39085 9.30619 1.24611 9.57008 1.14767C9.83397 1.04924 10.1167 0.99906 10.402 1.00001H21.9669C22.2517 0.999776 22.5338 1.05048 22.797 1.14924C23.0602 1.24799 23.2993 1.39285 23.5008 1.57554C23.7023 1.75824 23.8621 1.97518 23.9712 2.21396C24.0802 2.45275 24.1364 2.7087 24.1364 2.96718V23.96C24.1364 24.4822 23.9078 24.983 23.5009 25.3523C23.0941 25.7215 22.5423 25.929 21.9669 25.929H15.4626" stroke="#E60000" stroke-linecap="round" stroke-linejoin="round"/>
<path d="M7.51404 21.9915C11.1073 21.9915 14.0203 21.0735 14.0203 19.941C14.0203 18.8086 11.1073 17.8906 7.51404 17.8906C3.92075 17.8906 1.00781 18.8086 1.00781 19.941C1.00781 21.0735 3.92075 21.9915 7.51404 21.9915Z" stroke="#E60000" stroke-miterlimit="10"/>
<path d="M14.0104 19.9426V23.8119C13.161 24.7167 10.5768 25.1891 7.50419 25.1891C4.43155 25.1891 1.84941 24.5321 1 23.6309V19.8594" stroke="#E60000" stroke-linecap="round" stroke-linejoin="round"/>
<path d="M2.44629 24.4539V27.0834C3.29571 27.9883 5.87986 28.5583 8.95054 28.5583C12.0212 28.5583 14.6074 28.1494 15.4568 27.2481V23.9616C15.4568 23.9616 15.4568 23.3047 14.0112 23.3047" stroke="#E60000" stroke-linejoin="round"/>
<path d="M16.1836 8.21782V16.0938" stroke="#E60000" stroke-linecap="round" stroke-linejoin="round"/>
<path d="M19.4375 11.1709L16.1834 8.21741L12.9293 11.1709" stroke="#E60000" stroke-linecap="round" stroke-linejoin="round"/>
</svg>
