<svg width="28" height="20" viewBox="0 0 28 20" fill="none" xmlns="http://www.w3.org/2000/svg">
<path d="M14 19.6757C10.1075 19.6757 6.49856 18.1297 3.5652 15.2065C1.1604 12.812 0.117265 10.4369 0.108514 10.4141C0.103263 10.4018 0.0997625 10.3912 0.0945118 10.3789C-0.0315039 10.0065 -0.0315039 9.59541 0.0945118 9.22297C0.105013 9.19311 0.117265 9.165 0.129516 9.13689C0.595074 8.19351 4.89711 0 14 0C17.8925 0 21.5014 1.54595 24.4348 4.46919C26.8379 6.86365 27.8827 9.23878 27.8915 9.26162C27.8967 9.27392 27.9002 9.28622 27.9055 9.29676C28.0315 9.66919 28.0315 10.0803 27.9055 10.4527C27.895 10.4826 27.8827 10.5107 27.8687 10.5388C27.4032 11.4822 23.0994 19.6757 14 19.6757ZM1.41418 9.90459C1.5997 10.3069 5.47118 18.2703 14 18.2703C22.1385 18.2703 26.0748 10.9903 26.5893 9.96608C26.6051 9.90284 26.6033 9.83432 26.5858 9.77108C26.3986 9.36878 22.5271 1.40541 14 1.40541C5.86148 1.40541 1.92524 8.68365 1.41068 9.70959C1.39492 9.77459 1.39667 9.84135 1.41418 9.90459Z" fill="#333333"/>
<path d="M13.9991 15.4581C10.91 15.4581 8.39844 12.9354 8.39844 9.83647C8.39844 6.73579 10.91 4.21484 13.9991 4.21484C17.0865 4.21484 19.5998 6.73579 19.5998 9.83647C19.6138 12.9213 17.1215 15.444 14.0446 15.4581H13.9991ZM13.9991 5.62025C11.6836 5.62025 9.79861 7.51228 9.79861 9.83647C9.79861 12.1607 11.6836 14.0527 13.9991 14.0527H14.0411C16.3427 14.0421 18.2102 12.1519 18.1997 9.83998C18.1997 7.51228 16.3147 5.62025 13.9991 5.62025Z" fill="#333333"/>
</svg>
